<?xml version="1.0" encoding="UTF-8" standalone="no"?>
<!DOCTYPE svg PUBLIC "-//W3C//DTD SVG 1.1//EN"
 "http://www.w3.org/Graphics/SVG/1.1/DTD/svg11.dtd">
<!-- Generated by graphviz version 2.43.0 (0)
 -->
<!-- Title: AssemblyTheory Pages: 1 -->
<svg width="1586pt" height="99pt"
 viewBox="0.00 0.00 1586.00 99.00" xmlns="http://www.w3.org/2000/svg" xmlns:xlink="http://www.w3.org/1999/xlink">
<g id="graph0" class="graph" transform="scale(1 1) rotate(0) translate(4 95)">
<title>AssemblyTheory</title>
<polygon fill="white" stroke="transparent" points="-4,4 -4,-95 1582,-95 1582,4 -4,4"/>
<g id="clust1" class="cluster">
<title>cluster_Paper</title>
<polygon fill="none" stroke="black" points="8,-8 8,-83 1226,-83 1226,-8 8,-8"/>
<text text-anchor="middle" x="617" y="-67.8" font-family="Times,serif" font-size="14.00">Paper</text>
</g>
<g id="clust2" class="cluster">
<title>cluster_CopyNumberSelection</title>
<polygon fill="none" stroke="black" points="1234,-8 1234,-83 1426,-83 1426,-8 1234,-8"/>
<text text-anchor="middle" x="1330" y="-67.8" font-family="Times,serif" font-size="14.00">CopyNumberSelection</text>
</g>
<g id="clust3" class="cluster">
<title>cluster_AssemblyCore</title>
<polygon fill="none" stroke="black" points="1434,-8 1434,-83 1570,-83 1570,-8 1434,-8"/>
<text text-anchor="middle" x="1502" y="-67.8" font-family="Times,serif" font-size="14.00">AssemblyCore</text>
</g>
<!-- Paper.AssemblyPath -->
<g id="node1" class="node">
<title>Paper.AssemblyPath</title>
<polygon fill="lightblue" stroke="black" points="1217.5,-52 1100.5,-52 1100.5,-16 1217.5,-16 1217.5,-52"/>
<text text-anchor="middle" x="1159" y="-30.3" font-family="Times,serif" font-size="14.00">AssemblyPath</text>
</g>
<!-- Paper.AssemblyQuotient -->
<g id="node2" class="node">
<title>Paper.AssemblyQuotient</title>
<polygon fill="lightblue" stroke="black" points="1082.5,-52 935.5,-52 935.5,-16 1082.5,-16 1082.5,-52"/>
<text text-anchor="middle" x="1009" y="-30.3" font-family="Times,serif" font-size="14.00">AssemblyQuotient</text>
</g>
<!-- Paper.AssemblyIndex -->
<g id="node3" class="node">
<title>Paper.AssemblyIndex</title>
<polygon fill="lightblue" stroke="black" points="917.5,-52 792.5,-52 792.5,-16 917.5,-16 917.5,-52"/>
<text text-anchor="middle" x="855" y="-30.3" font-family="Times,serif" font-size="14.00">AssemblyIndex</text>
</g>
<!-- Paper.AssemblyBounds -->
<g id="node4" class="node">
<title>Paper.AssemblyBounds</title>
<polygon fill="lightblue" stroke="black" points="774,-52 636,-52 636,-16 774,-16 774,-52"/>
<text text-anchor="middle" x="705" y="-30.3" font-family="Times,serif" font-size="14.00">AssemblyBounds</text>
</g>
<!-- Paper.StringPermSpace -->
<g id="node5" class="node">
<title>Paper.StringPermSpace</title>
<polygon fill="lightblue" stroke="black" points="618,-52 476,-52 476,-16 618,-16 618,-52"/>
<text text-anchor="middle" x="547" y="-30.3" font-family="Times,serif" font-size="14.00">StringPermSpace</text>
</g>
<!-- Paper.HypergraphSpace -->
<g id="node6" class="node">
<title>Paper.HypergraphSpace</title>
<polygon fill="lightblue" stroke="black" points="458,-52 312,-52 312,-16 458,-16 458,-52"/>
<text text-anchor="middle" x="385" y="-30.3" font-family="Times,serif" font-size="14.00">HypergraphSpace</text>
</g>
<!-- Paper.AssemblySpace -->
<g id="node7" class="node">
<title>Paper.AssemblySpace</title>
<polygon fill="lightblue" stroke="black" points="294,-52 166,-52 166,-16 294,-16 294,-52"/>
<text text-anchor="middle" x="230" y="-30.3" font-family="Times,serif" font-size="14.00">AssemblySpace</text>
</g>
<!-- Paper.MolecularSpace -->
<g id="node8" class="node">
<title>Paper.MolecularSpace</title>
<polygon fill="lightblue" stroke="black" points="147.5,-52 16.5,-52 16.5,-16 147.5,-16 147.5,-52"/>
<text text-anchor="middle" x="82" y="-30.3" font-family="Times,serif" font-size="14.00">MolecularSpace</text>
</g>
<!-- CopyNumberSelection -->
<g id="node9" class="node">
<title>CopyNumberSelection</title>
<polygon fill="lightblue" stroke="black" points="1418.5,-52 1241.5,-52 1241.5,-16 1418.5,-16 1418.5,-52"/>
<text text-anchor="middle" x="1330" y="-30.3" font-family="Times,serif" font-size="14.00">CopyNumberSelection</text>
</g>
<!-- AssemblyCore -->
<g id="node10" class="node">
<title>AssemblyCore</title>
<polygon fill="lightblue" stroke="black" points="1561.5,-52 1442.5,-52 1442.5,-16 1561.5,-16 1561.5,-52"/>
<text text-anchor="middle" x="1502" y="-30.3" font-family="Times,serif" font-size="14.00">AssemblyCore</text>
</g>
</g>
</svg>
