<?xml version="1.0" encoding="UTF-8"?>
<svg xmlns="http://www.w3.org/2000/svg" width="600" height="300" viewBox="0 0 600 300">
  <defs>
    <linearGradient id="bg" x1="0%" y1="0%" x2="100%" y2="0%">
      <stop offset="0%" style="stop-color:#e8f4f8"/>
      <stop offset="100%" style="stop-color:#d0e8f0"/>
    </linearGradient>
  </defs>

  <!-- Background -->
  <rect width="600" height="300" fill="url(#bg)" rx="10"/>

  <!-- Title -->
  <text x="300" y="35" text-anchor="middle" font-family="Arial" font-size="18" font-weight="bold" fill="#2c3e50">
    Assembly Index Bounds
  </text>

  <!-- Axis line -->
  <line x1="50" y1="150" x2="550" y2="150" stroke="#34495e" stroke-width="2"/>

  <!-- Lower bound marker -->
  <rect x="100" y="130" width="120" height="40" fill="#3498db" rx="5"/>
  <text x="160" y="155" text-anchor="middle" font-family="Arial" font-size="12" fill="white">
    log₂(size)
  </text>
  <text x="160" y="190" text-anchor="middle" font-family="Arial" font-size="10" fill="#7f8c8d">
    Lower Bound
  </text>

  <!-- AI region -->
  <rect x="230" y="120" width="140" height="60" fill="#2ecc71" rx="5"/>
  <text x="300" y="145" text-anchor="middle" font-family="Arial" font-size="14" font-weight="bold" fill="white">
    Assembly
  </text>
  <text x="300" y="165" text-anchor="middle" font-family="Arial" font-size="14" font-weight="bold" fill="white">
    Index (AI)
  </text>

  <!-- Upper bound marker -->
  <rect x="380" y="130" width="120" height="40" fill="#e74c3c" rx="5"/>
  <text x="440" y="155" text-anchor="middle" font-family="Arial" font-size="12" fill="white">
    size - 1
  </text>
  <text x="440" y="190" text-anchor="middle" font-family="Arial" font-size="10" fill="#7f8c8d">
    Upper Bound
  </text>

  <!-- Arrows -->
  <path d="M 220 150 L 235 140 L 235 160 Z" fill="#34495e"/>
  <path d="M 380 150 L 365 140 L 365 160 Z" fill="#34495e"/>

  <!-- Legend -->
  <text x="300" y="240" text-anchor="middle" font-family="Arial" font-size="11" fill="#34495e">
    log₂(size) ≤ AI ≤ size - 1
  </text>
  <text x="300" y="260" text-anchor="middle" font-family="Arial" font-size="10" fill="#7f8c8d">
    Proved in AssemblyBounds.lean
  </text>

  <!-- Reuse note -->
  <text x="300" y="280" text-anchor="middle" font-family="Arial" font-size="9" fill="#95a5a6">
    AI = dagJoinCount (with intermediate reuse)
  </text>
</svg>